<?xml version="1.0" encoding="utf-8"?>
<!-- Generator: Adobe Illustrator 18.0.0, SVG Export Plug-In . SVG Version: 6.00 Build 0)  -->
<!DOCTYPE svg PUBLIC "-//W3C//DTD SVG 1.1//EN" "http://www.w3.org/Graphics/SVG/1.1/DTD/svg11.dtd">
<svg version="1.1" id="Layer_1" xmlns="http://www.w3.org/2000/svg" xmlns:xlink="http://www.w3.org/1999/xlink" x="0px" y="0px"
	 viewBox="232.9 383.3 147.6 25" enable-background="new 232.9 383.3 147.6 25" xml:space="preserve">
<path fill="#50AFC6" d="M233.4,383.8h5.3v10.5l9.7-10.5h6.4L245,394l10.2,13.8h-6.3l-7.4-10.2l-2.8,2.9v7.3h-5.3V383.8z"/>
<path fill="#50AFC6" d="M258.4,383.8h18.1v4.7h-12.8v4.9h11.3v4.7h-11.3v5h13v4.7h-18.2V383.8z"/>
<path fill="#50AFC6" d="M281.3,383.8h4.9l11.2,14.7v-14.7h5.2v23.9h-4.5l-11.6-15.2v15.2h-5.2L281.3,383.8L281.3,383.8z"/>
<path fill="#50AFC6" d="M306.6,404.3l3.1-3.7c2.2,1.8,4.4,2.9,7.1,2.9c2.2,0,3.5-0.9,3.5-2.3v-0.1c0-1.3-0.8-2-4.8-3
	c-4.8-1.2-7.9-2.6-7.9-7.3v-0.1c0-4.3,3.5-7.2,8.4-7.2c3.5,0,6.5,1.1,8.9,3l-2.7,4c-2.1-1.5-4.2-2.4-6.2-2.4c-2,0-3.1,0.9-3.1,2.1
	v0.1c0,1.6,1,2.1,5.2,3.1c4.9,1.3,7.6,3,7.6,7.2v0.1c0,4.8-3.6,7.4-8.8,7.4C313.2,408.1,309.5,406.8,306.6,404.3z"/>
<path fill="#50AFC6" d="M330.2,383.8h5.3v9.5h9.7v-9.5h5.3v23.9h-5.3v-9.6h-9.7v9.6h-5.3V383.8z"/>
<path fill="#50AFC6" d="M380,395.8c0,2-0.5,4-1.4,5.7c0,0.1-0.1,0.1-0.1,0.2l-0.9-0.5c0-0.1,0.1-0.1,0.1-0.2
	c0.8-1.6,1.2-3.3,1.2-5.2c0-2.7-0.9-5.2-2.5-7.2l-1.5,1.2c0-0.1-0.1-0.1-0.1-0.2c-1.6-1.9-3.9-3.2-6.6-3.3l-0.2,2.4
	c-0.1,0-0.1,0-0.2,0c-0.1,0-0.2,0-0.3,0c-3.9,0-7,3.2-7,7c0,3.9,3.2,7,7,7c2.3,0,4.4-1.1,5.7-2.9c0-0.1,0.1-0.1,0.1-0.2l2,1.4
	l1.6,1.1l0.8,0.6c0,0.1-0.1,0.1-0.1,0.2c-2.3,3.1-5.9,5.1-10,5.1c-6.8,0-12.4-5.6-12.4-12.4c0-6.8,5.6-12.4,12.4-12.4
	c0.2,0,0.4,0,0.7,0c0.1,0,0.1,0,0.2,0c3.5,0.2,6.5,1.9,8.6,4.4c0,0.1,0.1,0.1,0.1,0.2C379,390.1,380,392.8,380,395.8z"/>
</svg>
